# xmcd
#
# Track frame offsets:
#	150
#	14499
#	32409
#	46853
#	59989
#	75375
#	90012
#	105645
#	120444
#	136096
#	154731
#	170846
#	183708
#	202149
#	216271
#	229992
#	245615
#	263292
#	278770
#
# Disc length: 3946 seconds
#
# Revision: 1
# Processed by: cddbd v1.5.2PL0 Copyright (c) Steve Scherf et al.
# Submitted via: audiograbber 1.83.01
#
DISCID=020f6813
DTITLE=Various Artist - Hott Country 196
DYEAR=2012
DGENRE=Country
TTITLE0=Gord Bamford - Leaning On A Lonesome Song
TTITLE1=Big and Rich - That's Why I Pray
TTITLE2=Jake Owen - The One That Got Away
TTITLE3=Zac Brown Band - The Wind
TTITLE4=Dean Brody - Bob Marley
TTITLE5=Hey Romeo - Jump Back In
TTITLE6=Ryan Laird - Girl Crazy
TTITLE7=Miranda Lambert - Fastest Girl In Town
TTITLE8=Belle Starr - Jolene
TTITLE9=Victoria Banks - Jackson
TTITLE10=Sean Hogan - Phoenix
TTITLE11=Jaida Dreyer - Guy's Girl
TTITLE12=Kenny Chesney - Come Over
TTITLE13=Greg Bates - Did It For The Girl
TTITLE14=Randy Houser - How Country Feels
TTITLE15=Little Big Town - Pontoon
TTITLE16=Bobby Wills - Show Some Respect
TTITLE17=Krysta Scoggins - I'll Carry You
TTITLE18=Jessie James - Military Man
EXTD=June 2012
EXTT0=
EXTT1=
EXTT2=
EXTT3=
EXTT4=
EXTT5=
EXTT6=
EXTT7=
EXTT8=
EXTT9=
EXTT10=
EXTT11=
EXTT12=
EXTT13=
EXTT14=
EXTT15=
EXTT16=
EXTT17=
EXTT18=
PLAYORDER=
